<?xml version="1.0" encoding="UTF-8" standalone="no"?>
<!DOCTYPE svg PUBLIC "-//W3C//DTD SVG 1.1//EN" "http://www.w3.org/Graphics/SVG/1.1/DTD/svg11.dtd">
<svg width="100%" height="100%" viewBox="0 0 350 298" version="1.1" xmlns="http://www.w3.org/2000/svg" xmlns:xlink="http://www.w3.org/1999/xlink" xml:space="preserve" xmlns:serif="http://www.serif.com/" style="fill-rule:evenodd;clip-rule:evenodd;stroke-linecap:round;stroke-linejoin:round;">
    <g transform="matrix(1,0,0,1,-495,-3137)">
        <g transform="matrix(2.96657,0,0,2.03936,2774,3245.66)">
            <g transform="matrix(0.0842888,0,0,0.122612,-800.137,-121.834)">
                <g transform="matrix(12.2385,-3.2793,1.24077,4.63061,8375.34,-992.087)">
                    <g transform="matrix(1.58274,0,0,4.18313,-612.324,-78.4611)">
                        <path d="M32.92,20.8L32.92,24.43L36.15,24.43C37.033,24.43 37.76,25.157 37.76,26.04C37.76,26.043 37.76,26.047 37.76,26.05L37.76,30.84C37.765,32.151 36.972,33.341 35.76,33.84L32.92,35L32.92,39.44L37.48,37.44C39.853,36.431 41.401,34.089 41.4,31.51L41.4,24.84C41.4,22.646 39.594,20.84 37.4,20.84L32.92,20.8Z" style="fill:rgb(229,254,255);fill-rule:nonzero;stroke:rgb(69,65,60);stroke-width:1px;"/>
                    </g>
                    <g transform="matrix(1.58274,0,0,4.18313,-612.324,-78.4611)">
                        <path d="M34.13,41.87L11.13,41.87C11.892,41.108 12.327,40.078 12.34,39L12.34,17.17L32.92,17.17L32.92,39C32.925,40.094 33.359,41.143 34.13,41.92L34.13,41.87Z" style="fill:rgb(209,183,9);fill-rule:nonzero;"/>
                    </g>
                    <g transform="matrix(2.73913,0,0,4.18313,-625.194,-78.4611)">
                        <path d="M22.43,17.17L12.34,17.17L12.34,39C12.34,40.095 11.904,41.146 11.13,41.92L22.43,41.92L22.43,17.17Z" style="fill:rgb(243,220,73);fill-rule:nonzero;"/>
                    </g>
                    <g transform="matrix(1.52881,1.08267,-0.409644,4.04059,-596.51,-34.3129)">
                        <path d="M8.13,45.5C8.13,46.323 14.676,47 22.63,47C30.584,47 37.13,46.323 37.13,45.5C37.13,44.677 30.584,44 22.63,44C14.676,44 8.13,44.677 8.13,45.5Z" style="fill:rgb(69,65,60);fill-opacity:0.15;fill-rule:nonzero;"/>
                    </g>
                    <g transform="matrix(1.58274,0,0,4.18313,-612.324,-78.4611)">
                        <path d="M34.13,41.87L11.13,41.87C11.892,41.108 12.327,40.078 12.34,39L12.34,17.17L32.92,17.17L32.92,39C32.925,40.094 33.359,41.143 34.13,41.92L34.13,41.87Z" style="fill:none;fill-rule:nonzero;stroke:rgb(69,65,60);stroke-width:1px;"/>
                    </g>
                    <g transform="matrix(1.58274,0,0,4.18313,-612.324,-78.4611)">
                        <path d="M14.77,26.45C14.77,27.114 15.316,27.66 15.98,27.66C16.644,27.66 17.19,27.114 17.19,26.45C17.19,25.786 16.644,25.24 15.98,25.24C15.316,25.24 14.77,25.786 14.77,26.45Z" style="fill:rgb(228,201,0);fill-rule:nonzero;"/>
                    </g>
                    <g transform="matrix(1.58274,0,0,4.18313,-620.633,-85.6895)">
                        <path d="M29.29,23.22C29.29,23.664 29.656,24.03 30.1,24.03C30.544,24.03 30.91,23.664 30.91,23.22C30.91,22.776 30.544,22.41 30.1,22.41C29.656,22.41 29.29,22.776 29.29,23.22Z" style="fill:rgb(228,201,0);fill-rule:nonzero;"/>
                    </g>
                    <g transform="matrix(1.58274,0,0,4.18313,-612.324,-78.4611)">
                        <path d="M12.34,19.62C12.483,19.629 12.627,19.629 12.77,19.62C13.217,19.62 13.659,19.518 14.06,19.32L14.06,22.2C14.057,22.235 14.055,22.269 14.055,22.304C14.055,22.896 14.543,23.384 15.135,23.384C15.727,23.384 16.215,22.896 16.215,22.304C16.215,22.269 16.213,22.235 16.21,22.2L16.21,19.45C16.627,19.586 17.062,19.657 17.5,19.66C17.789,19.658 18.078,19.624 18.36,19.56L18.36,24.82C18.433,25.829 19.283,26.621 20.295,26.621C21.307,26.621 22.157,25.829 22.23,24.82L22.23,19.66C23.294,19.662 24.336,19.356 25.23,18.78C26.747,19.955 28.883,19.955 30.4,18.78C30.965,19.351 31.737,19.672 32.54,19.67C32.666,19.68 32.794,19.68 32.92,19.67L32.92,17.17L12.34,17.17L12.34,19.62Z" style="fill:rgb(69,65,60);fill-opacity:0.15;fill-rule:nonzero;"/>
                    </g>
                    <g transform="matrix(1.58274,0,0,4.18313,-612.324,-78.4611)">
                        <path d="M35.55,15.14C35.55,13.494 34.196,12.14 32.55,12.14C32.297,12.142 32.045,12.176 31.8,12.24C31.14,10.617 29.552,9.553 27.8,9.56C27.521,9.561 27.244,9.588 26.97,9.64C25.956,7.989 24.152,6.98 22.215,6.98C20.311,6.98 18.534,7.955 17.51,9.56C15.758,9.553 14.17,10.617 13.51,12.24C13.265,12.176 13.013,12.142 12.76,12.14C11.114,12.14 9.76,13.494 9.76,15.14C9.76,16.786 11.114,18.14 12.76,18.14C13.207,18.14 13.649,18.038 14.05,17.84L14.05,20.72C14.103,21.271 14.572,21.696 15.125,21.696C15.678,21.696 16.147,21.271 16.2,20.72L16.2,17.94C16.617,18.076 17.052,18.147 17.49,18.15C17.779,18.148 18.068,18.114 18.35,18.05L18.35,23.31C18.423,24.319 19.273,25.111 20.285,25.111C21.297,25.111 22.147,24.319 22.22,23.31L22.22,18.15C23.284,18.152 24.326,17.846 25.22,17.27C26.737,18.445 28.873,18.445 30.39,17.27C30.955,17.85 31.731,18.178 32.54,18.178C34.186,18.178 35.54,16.824 35.54,15.178C35.54,15.169 35.54,15.159 35.54,15.15L35.55,15.14Z" style="fill:white;fill-rule:nonzero;stroke:rgb(69,65,60);stroke-width:1px;"/>
                    </g>
                    <g transform="matrix(1.58274,0,0,4.18313,-612.324,-78.4611)">
                        <path d="M26.87,34.52C26.87,35.184 27.416,35.73 28.08,35.73C28.744,35.73 29.29,35.184 29.29,34.52C29.29,33.856 28.744,33.31 28.08,33.31C27.416,33.31 26.87,33.856 26.87,34.52Z" style="fill:rgb(228,201,0);fill-rule:nonzero;"/>
                    </g>
                    <g transform="matrix(1.58274,0,0,4.18313,-612.324,-78.4611)">
                        <path d="M17.59,36.94C17.59,37.384 17.956,37.75 18.4,37.75C18.844,37.75 19.21,37.384 19.21,36.94C19.21,36.496 18.844,36.13 18.4,36.13C17.956,36.13 17.59,36.496 17.59,36.94Z" style="fill:rgb(235,203,0);fill-rule:nonzero;"/>
                    </g>
                    <g transform="matrix(1.58274,0,0,4.18313,-612.324,-78.4611)">
                        <path d="M13.96,30.75C13.96,31.194 14.326,31.56 14.77,31.56C15.214,31.56 15.58,31.194 15.58,30.75C15.58,30.306 15.214,29.94 14.77,29.94C14.326,29.94 13.96,30.306 13.96,30.75Z" style="fill:rgb(228,201,0);fill-rule:nonzero;"/>
                    </g>
                    <g transform="matrix(1.58274,0,0,4.18313,-611.042,-77.3033)">
                        <path d="M24.85,26.85C24.85,27.294 25.216,27.66 25.66,27.66C26.104,27.66 26.47,27.294 26.47,26.85C26.47,26.406 26.104,26.04 25.66,26.04C25.216,26.04 24.85,26.406 24.85,26.85Z" style="fill:rgb(228,201,0);fill-rule:nonzero;"/>
                    </g>
                    <g transform="matrix(1.58274,0,0,4.18313,-600.733,-106.572)">
                        <path d="M21.85,31.3C21.853,31.342 21.855,31.384 21.855,31.427C21.855,32.31 21.128,33.037 20.245,33.037C19.362,33.037 18.635,32.31 18.635,31.427C18.635,31.384 18.637,31.342 18.64,31.3C18.924,30.207 19.383,29.166 20,28.22C20.056,28.123 20.158,28.063 20.27,28.06C20.379,28.062 20.479,28.123 20.53,28.22C21.137,29.167 21.583,30.208 21.85,31.3Z" style="fill:white;fill-rule:nonzero;stroke:rgb(69,65,60);stroke-width:1px;"/>
                    </g>
                    <g transform="matrix(1.58274,0,0,4.18313,-612.324,-78.4611)">
                        <path d="M35.75,43.68C35.767,44.658 34.978,45.478 34,45.5L11.28,45.5C10.335,45.43 9.595,44.633 9.595,43.685C9.595,42.737 10.335,41.94 11.28,41.87L34,41.87C34.974,41.892 35.761,42.705 35.75,43.68Z" style="fill:rgb(229,254,255);fill-rule:nonzero;stroke:rgb(69,65,60);stroke-width:1px;"/>
                    </g>
                    <g transform="matrix(0.127373,0,0,0.336642,-601.486,7.91018)">
                        <path d="M126.297,231.659C144.153,231.659 156.393,222.155 156.393,201.275L156.393,132.443L136.233,132.443L136.233,200.987C136.233,211.067 132.057,213.659 125.433,213.659C118.521,213.659 115.641,208.907 112.473,203.291L96.057,213.227C100.809,223.307 110.169,231.659 126.297,231.659Z" style="fill:rgb(69,65,60);fill-rule:nonzero;"/>
                        <path d="M204.057,231.659C223.209,231.659 237.465,221.723 237.465,203.579C237.465,186.731 227.817,179.243 210.681,171.899L205.641,169.739C197.001,165.995 193.257,163.547 193.257,157.499C193.257,152.603 197.001,148.859 202.905,148.859C208.665,148.859 212.409,151.307 215.865,157.499L231.561,147.419C224.937,135.755 215.721,131.291 202.905,131.291C184.905,131.291 173.385,142.811 173.385,157.931C173.385,174.347 183.033,182.123 197.577,188.315L202.617,190.475C211.833,194.507 217.305,196.955 217.305,203.867C217.305,209.627 211.977,213.803 203.625,213.803C193.689,213.803 188.073,208.619 183.753,201.563L167.337,211.067C173.241,222.731 185.337,231.659 204.057,231.659Z" style="fill:rgb(69,65,60);fill-rule:nonzero;"/>
                    </g>
                    <g transform="matrix(0.0914035,0,0,0.241576,-599.311,-41.2741)">
                        <path d="M275.522,52.2C279.322,52 281.922,48.183 281.922,44C281.922,38 277.153,31.718 272.522,28.4C268.815,25.521 264.212,24.034 259.522,24.2C255.339,24.2 249.922,28.017 249.922,32.2C249.922,36.383 253.339,39 257.522,39C261.573,39 266.722,42 267.922,46.2C268.722,50.6 271.722,52.4 275.522,52.2Z" style="fill:rgb(68,64,59);fill-rule:nonzero;"/>
                    </g>
                    <g transform="matrix(5.59685e-18,-0.241576,0.0914035,1.47922e-17,-595.514,49.0339)">
                        <path d="M275.522,52.2C279.322,52 281.922,48.183 281.922,44C281.922,38 277.153,31.718 272.522,28.4C268.815,25.521 264.212,24.034 259.522,24.2C255.339,24.2 249.922,28.017 249.922,32.2C249.922,36.383 253.339,39 257.522,39C261.573,39 266.722,42 267.922,46.2C268.722,50.6 271.722,52.4 275.522,52.2Z" style="fill:rgb(68,64,59);fill-rule:nonzero;"/>
                    </g>
                    <g transform="matrix(0.109862,0,0,0.290361,-568.554,-27.5392)">
                        <circle cx="9.326" cy="9.326" r="9.326" style="fill:rgb(69,65,60);"/>
                    </g>
                </g>
                <g transform="matrix(-12.2385,-3.2793,-1.24077,4.63061,-6231.49,-738.047)">
                    <g transform="matrix(1.58274,0,0,4.18313,-612.324,-78.4611)">
                        <path d="M32.92,20.8L32.92,24.43L36.15,24.43C37.033,24.43 37.76,25.157 37.76,26.04C37.76,26.043 37.76,26.047 37.76,26.05L37.76,30.84C37.765,32.151 36.972,33.341 35.76,33.84L32.92,35L32.92,39.44L37.48,37.44C39.853,36.431 41.401,34.089 41.4,31.51L41.4,24.84C41.4,22.646 39.594,20.84 37.4,20.84L32.92,20.8Z" style="fill:rgb(229,254,255);fill-rule:nonzero;stroke:rgb(69,65,60);stroke-width:1px;"/>
                    </g>
                    <g transform="matrix(1.58274,0,0,4.18313,-612.324,-78.4611)">
                        <path d="M34.13,41.87L11.13,41.87C11.892,41.108 12.327,40.078 12.34,39L12.34,17.17L32.92,17.17L32.92,39C32.925,40.094 33.359,41.143 34.13,41.92L34.13,41.87Z" style="fill:rgb(209,183,9);fill-rule:nonzero;"/>
                    </g>
                    <g transform="matrix(2.73913,0,0,4.18313,-625.194,-78.4611)">
                        <path d="M22.43,17.17L12.34,17.17L12.34,39C12.34,40.095 11.904,41.146 11.13,41.92L22.43,41.92L22.43,17.17Z" style="fill:rgb(243,220,73);fill-rule:nonzero;"/>
                    </g>
                    <g transform="matrix(1.52881,1.08267,-0.409644,4.04059,-593.579,-87.0984)">
                        <path d="M8.13,45.5C8.13,46.323 14.676,47 22.63,47C30.584,47 37.13,46.323 37.13,45.5C37.13,44.677 30.584,44 22.63,44C14.676,44 8.13,44.677 8.13,45.5Z" style="fill:rgb(69,65,60);fill-opacity:0.15;fill-rule:nonzero;"/>
                    </g>
                    <g transform="matrix(1.58274,0,0,4.18313,-612.324,-78.4611)">
                        <path d="M34.13,41.87L11.13,41.87C11.892,41.108 12.327,40.078 12.34,39L12.34,17.17L32.92,17.17L32.92,39C32.925,40.094 33.359,41.143 34.13,41.92L34.13,41.87Z" style="fill:none;fill-rule:nonzero;stroke:rgb(69,65,60);stroke-width:1px;"/>
                    </g>
                    <g transform="matrix(1.58274,0,0,4.18313,-612.324,-78.4611)">
                        <path d="M14.77,26.45C14.77,27.114 15.316,27.66 15.98,27.66C16.644,27.66 17.19,27.114 17.19,26.45C17.19,25.786 16.644,25.24 15.98,25.24C15.316,25.24 14.77,25.786 14.77,26.45Z" style="fill:rgb(228,201,0);fill-rule:nonzero;"/>
                    </g>
                    <g transform="matrix(1.58274,0,0,4.18313,-620.633,-85.6895)">
                        <path d="M29.29,23.22C29.29,23.664 29.656,24.03 30.1,24.03C30.544,24.03 30.91,23.664 30.91,23.22C30.91,22.776 30.544,22.41 30.1,22.41C29.656,22.41 29.29,22.776 29.29,23.22Z" style="fill:rgb(228,201,0);fill-rule:nonzero;"/>
                    </g>
                    <g transform="matrix(1.58274,0,0,4.18313,-612.324,-78.4611)">
                        <path d="M12.34,19.62C12.483,19.629 12.627,19.629 12.77,19.62C13.217,19.62 13.659,19.518 14.06,19.32L14.06,22.2C14.057,22.235 14.055,22.269 14.055,22.304C14.055,22.896 14.543,23.384 15.135,23.384C15.727,23.384 16.215,22.896 16.215,22.304C16.215,22.269 16.213,22.235 16.21,22.2L16.21,19.45C16.627,19.586 17.062,19.657 17.5,19.66C17.789,19.658 18.078,19.624 18.36,19.56L18.36,24.82C18.433,25.829 19.283,26.621 20.295,26.621C21.307,26.621 22.157,25.829 22.23,24.82L22.23,19.66C23.294,19.662 24.336,19.356 25.23,18.78C26.747,19.955 28.883,19.955 30.4,18.78C30.965,19.351 31.737,19.672 32.54,19.67C32.666,19.68 32.794,19.68 32.92,19.67L32.92,17.17L12.34,17.17L12.34,19.62Z" style="fill:rgb(69,65,60);fill-opacity:0.15;fill-rule:nonzero;"/>
                    </g>
                    <g transform="matrix(1.58274,0,0,4.18313,-612.324,-78.4611)">
                        <path d="M35.55,15.14C35.55,13.494 34.196,12.14 32.55,12.14C32.297,12.142 32.045,12.176 31.8,12.24C31.14,10.617 29.552,9.553 27.8,9.56C27.521,9.561 27.244,9.588 26.97,9.64C25.956,7.989 24.152,6.98 22.215,6.98C20.311,6.98 18.534,7.955 17.51,9.56C15.758,9.553 14.17,10.617 13.51,12.24C13.265,12.176 13.013,12.142 12.76,12.14C11.114,12.14 9.76,13.494 9.76,15.14C9.76,16.786 11.114,18.14 12.76,18.14C13.207,18.14 13.649,18.038 14.05,17.84L14.05,20.72C14.103,21.271 14.572,21.696 15.125,21.696C15.678,21.696 16.147,21.271 16.2,20.72L16.2,17.94C16.617,18.076 17.052,18.147 17.49,18.15C17.779,18.148 18.068,18.114 18.35,18.05L18.35,23.31C18.423,24.319 19.273,25.111 20.285,25.111C21.297,25.111 22.147,24.319 22.22,23.31L22.22,18.15C23.284,18.152 24.326,17.846 25.22,17.27C26.737,18.445 28.873,18.445 30.39,17.27C30.955,17.85 31.731,18.178 32.54,18.178C34.186,18.178 35.54,16.824 35.54,15.178C35.54,15.169 35.54,15.159 35.54,15.15L35.55,15.14Z" style="fill:white;fill-rule:nonzero;stroke:rgb(69,65,60);stroke-width:1px;"/>
                    </g>
                    <g transform="matrix(1.58274,0,0,4.18313,-612.324,-78.4611)">
                        <path d="M26.87,34.52C26.87,35.184 27.416,35.73 28.08,35.73C28.744,35.73 29.29,35.184 29.29,34.52C29.29,33.856 28.744,33.31 28.08,33.31C27.416,33.31 26.87,33.856 26.87,34.52Z" style="fill:rgb(228,201,0);fill-rule:nonzero;"/>
                    </g>
                    <g transform="matrix(1.58274,0,0,4.18313,-612.324,-78.4611)">
                        <path d="M17.59,36.94C17.59,37.384 17.956,37.75 18.4,37.75C18.844,37.75 19.21,37.384 19.21,36.94C19.21,36.496 18.844,36.13 18.4,36.13C17.956,36.13 17.59,36.496 17.59,36.94Z" style="fill:rgb(235,203,0);fill-rule:nonzero;"/>
                    </g>
                    <g transform="matrix(1.58274,0,0,4.18313,-612.324,-78.4611)">
                        <path d="M13.96,30.75C13.96,31.194 14.326,31.56 14.77,31.56C15.214,31.56 15.58,31.194 15.58,30.75C15.58,30.306 15.214,29.94 14.77,29.94C14.326,29.94 13.96,30.306 13.96,30.75Z" style="fill:rgb(228,201,0);fill-rule:nonzero;"/>
                    </g>
                    <g transform="matrix(1.58274,0,0,4.18313,-611.042,-77.3033)">
                        <path d="M24.85,26.85C24.85,27.294 25.216,27.66 25.66,27.66C26.104,27.66 26.47,27.294 26.47,26.85C26.47,26.406 26.104,26.04 25.66,26.04C25.216,26.04 24.85,26.406 24.85,26.85Z" style="fill:rgb(228,201,0);fill-rule:nonzero;"/>
                    </g>
                    <g transform="matrix(1.58274,0,0,4.18313,-600.733,-106.572)">
                        <path d="M21.85,31.3C21.853,31.342 21.855,31.384 21.855,31.427C21.855,32.31 21.128,33.037 20.245,33.037C19.362,33.037 18.635,32.31 18.635,31.427C18.635,31.384 18.637,31.342 18.64,31.3C18.924,30.207 19.383,29.166 20,28.22C20.056,28.123 20.158,28.063 20.27,28.06C20.379,28.062 20.479,28.123 20.53,28.22C21.137,29.167 21.583,30.208 21.85,31.3Z" style="fill:white;fill-rule:nonzero;stroke:rgb(69,65,60);stroke-width:1px;"/>
                    </g>
                    <g transform="matrix(1.58274,0,0,4.18313,-612.324,-78.4611)">
                        <path d="M35.75,43.68C35.767,44.658 34.978,45.478 34,45.5L11.28,45.5C10.335,45.43 9.595,44.633 9.595,43.685C9.595,42.737 10.335,41.94 11.28,41.87L34,41.87C34.974,41.892 35.761,42.705 35.75,43.68Z" style="fill:rgb(229,254,255);fill-rule:nonzero;stroke:rgb(69,65,60);stroke-width:1px;"/>
                    </g>
                    <g transform="matrix(-0.127373,0,0,0.336642,-559.004,7.91018)">
                        <path d="M126.297,231.659C144.153,231.659 156.393,222.155 156.393,201.275L156.393,132.443L136.233,132.443L136.233,200.987C136.233,211.067 132.057,213.659 125.433,213.659C118.521,213.659 115.641,208.907 112.473,203.291L96.057,213.227C100.809,223.307 110.169,231.659 126.297,231.659Z" style="fill:rgb(69,65,60);fill-rule:nonzero;"/>
                        <path d="M204.057,231.659C223.209,231.659 237.465,221.723 237.465,203.579C237.465,186.731 227.817,179.243 210.681,171.899L205.641,169.739C197.001,165.995 193.257,163.547 193.257,157.499C193.257,152.603 197.001,148.859 202.905,148.859C208.665,148.859 212.409,151.307 215.865,157.499L231.561,147.419C224.937,135.755 215.721,131.291 202.905,131.291C184.905,131.291 173.385,142.811 173.385,157.931C173.385,174.347 183.033,182.123 197.577,188.315L202.617,190.475C211.833,194.507 217.305,196.955 217.305,203.867C217.305,209.627 211.977,213.803 203.625,213.803C193.689,213.803 188.073,208.619 183.753,201.563L167.337,211.067C173.241,222.731 185.337,231.659 204.057,231.659Z" style="fill:rgb(69,65,60);fill-rule:nonzero;"/>
                    </g>
                    <g transform="matrix(0.0914035,0,0,0.241576,-599.311,-41.2741)">
                        <path d="M275.522,52.2C279.322,52 281.922,48.183 281.922,44C281.922,38 277.153,31.718 272.522,28.4C268.815,25.521 264.212,24.034 259.522,24.2C255.339,24.2 249.922,28.017 249.922,32.2C249.922,36.383 253.339,39 257.522,39C261.573,39 266.722,42 267.922,46.2C268.722,50.6 271.722,52.4 275.522,52.2Z" style="fill:rgb(68,64,59);fill-rule:nonzero;"/>
                    </g>
                    <g transform="matrix(5.59685e-18,-0.241576,0.0914035,1.47922e-17,-595.514,49.0339)">
                        <path d="M275.522,52.2C279.322,52 281.922,48.183 281.922,44C281.922,38 277.153,31.718 272.522,28.4C268.815,25.521 264.212,24.034 259.522,24.2C255.339,24.2 249.922,28.017 249.922,32.2C249.922,36.383 253.339,39 257.522,39C261.573,39 266.722,42 267.922,46.2C268.722,50.6 271.722,52.4 275.522,52.2Z" style="fill:rgb(68,64,59);fill-rule:nonzero;"/>
                    </g>
                    <g transform="matrix(0.109862,0,0,0.290361,-568.554,-27.5392)">
                        <circle cx="9.326" cy="9.326" r="9.326" style="fill:rgb(69,65,60);"/>
                    </g>
                </g>
                <g transform="matrix(1,0,0,1,415.924,485.272)">
                    <g transform="matrix(21.7014,-8.88178e-16,-8.88178e-16,21.7014,107.704,77.3799)">
                        <path d="M21.23,3.55C21.308,3.543 21.386,3.573 21.44,3.63C21.493,3.69 21.518,3.77 21.51,3.85L21,7.19C20.978,7.303 20.884,7.389 20.77,7.4C20.655,7.411 20.547,7.34 20.51,7.23L19.4,4.08C19.366,4.011 19.366,3.929 19.4,3.86C19.444,3.795 19.513,3.752 19.59,3.74L21.23,3.55Z" style="fill:white;fill-rule:nonzero;stroke:rgb(69,65,60);stroke-width:0.96px;stroke-linecap:butt;"/>
                    </g>
                    <g transform="matrix(21.7014,-8.88178e-16,-8.88178e-16,21.7014,107.704,77.3799)">
                        <path d="M27,5C27.062,5.041 27.106,5.106 27.12,5.18C27.128,5.262 27.099,5.343 27.04,5.4L24.56,7.69C24.469,7.762 24.341,7.762 24.25,7.69C24.149,7.627 24.104,7.503 24.14,7.39L25.14,4.22C25.164,4.147 25.219,4.089 25.29,4.06C25.359,4.024 25.441,4.024 25.51,4.06L27,5Z" style="fill:white;fill-rule:nonzero;stroke:rgb(69,65,60);stroke-width:0.96px;stroke-linecap:butt;"/>
                    </g>
                    <g transform="matrix(21.7014,-8.88178e-16,-8.88178e-16,21.7014,107.704,77.3799)">
                        <path d="M14.74,5.75C14.677,5.797 14.64,5.871 14.64,5.95C14.64,6.029 14.677,6.103 14.74,6.15L17.18,8.49C17.227,8.529 17.286,8.551 17.347,8.551C17.49,8.551 17.607,8.434 17.607,8.291C17.607,8.27 17.605,8.25 17.6,8.23L16.6,5.06C16.582,4.984 16.525,4.923 16.45,4.9C16.381,4.866 16.299,4.866 16.23,4.9L14.74,5.75Z" style="fill:white;fill-rule:nonzero;stroke:rgb(69,65,60);stroke-width:0.96px;stroke-linecap:butt;"/>
                    </g>
                    <g transform="matrix(21.7014,-8.88178e-16,-8.88178e-16,21.7014,107.704,77.3799)">
                        <path d="M11,10.33C10.989,10.359 10.983,10.39 10.983,10.421C10.983,10.55 11.082,10.658 11.21,10.67L14.57,11.06C14.686,11.077 14.799,11.01 14.84,10.9C14.882,10.789 14.84,10.663 14.74,10.6L12,8.7C11.959,8.672 11.91,8.657 11.86,8.657C11.76,8.657 11.669,8.718 11.63,8.81L11,10.33Z" style="fill:white;fill-rule:nonzero;stroke:rgb(69,65,60);stroke-width:0.96px;stroke-linecap:butt;"/>
                    </g>
                </g>
                <g transform="matrix(13.7112,0,0,5.18784,9060.82,904.992)">
                    <g transform="matrix(1.58274,0,0,4.18313,-612.324,-78.4611)">
                        <path d="M26.66,4.98L26.66,3.37" style="fill:none;fill-rule:nonzero;stroke:rgb(69,65,60);stroke-width:1px;"/>
                    </g>
                    <g transform="matrix(1.58274,0,0,4.18313,-612.324,-78.4611)">
                        <path d="M25.85,4.18L27.46,4.18" style="fill:none;fill-rule:nonzero;stroke:rgb(69,65,60);stroke-width:1px;"/>
                    </g>
                </g>
                <g transform="matrix(21.7014,0,0,21.7014,721.1,446.082)">
                    <path d="M32.18,8.52C32.18,9.151 32.699,9.67 33.33,9.67C33.961,9.67 34.48,9.151 34.48,8.52C34.48,7.889 33.961,7.37 33.33,7.37C32.699,7.37 32.18,7.889 32.18,8.52Z" style="fill:white;fill-rule:nonzero;stroke:rgb(69,65,60);stroke-width:1px;"/>
                </g>
                <g transform="matrix(21.7014,0,0,21.7014,318.1,720.03)">
                    <path d="M10.73,8.33C10.73,8.884 11.186,9.34 11.74,9.34C12.294,9.34 12.75,8.884 12.75,8.33C12.75,7.776 12.294,7.32 11.74,7.32C11.186,7.32 10.73,7.776 10.73,8.33Z" style="fill:white;fill-rule:nonzero;stroke:rgb(69,65,60);stroke-width:1px;"/>
                </g>
                <g transform="matrix(13.7112,0,0,5.18784,8636.1,1093.88)">
                    <g transform="matrix(1.58274,0,0,4.18313,-612.324,-78.4611)">
                        <path d="M17.05,1.11L17.05,0.5" style="fill:none;fill-rule:nonzero;stroke:rgb(69,65,60);stroke-width:1px;"/>
                    </g>
                    <g transform="matrix(1.58274,0,0,4.18313,-612.324,-78.4611)">
                        <path d="M18.34,1.64L18.76,1.21" style="fill:none;fill-rule:nonzero;stroke:rgb(69,65,60);stroke-width:1px;"/>
                    </g>
                    <g transform="matrix(1.58274,0,0,4.18313,-612.324,-78.4611)">
                        <path d="M18.87,2.92L19.47,2.92" style="fill:none;fill-rule:nonzero;stroke:rgb(69,65,60);stroke-width:1px;"/>
                    </g>
                    <g transform="matrix(1.58274,0,0,4.18313,-612.324,-78.4611)">
                        <path d="M18.34,4.2L18.76,4.63" style="fill:none;fill-rule:nonzero;stroke:rgb(69,65,60);stroke-width:1px;"/>
                    </g>
                    <g transform="matrix(1.58274,0,0,4.18313,-612.324,-78.4611)">
                        <path d="M17.05,4.74L17.05,5.34" style="fill:none;fill-rule:nonzero;stroke:rgb(69,65,60);stroke-width:1px;"/>
                    </g>
                    <g transform="matrix(1.58274,0,0,4.18313,-612.324,-78.4611)">
                        <path d="M15.77,4.2L15.34,4.63" style="fill:none;fill-rule:nonzero;stroke:rgb(69,65,60);stroke-width:1px;"/>
                    </g>
                    <g transform="matrix(1.58274,0,0,4.18313,-612.324,-78.4611)">
                        <path d="M15.24,2.92L14.63,2.92" style="fill:none;fill-rule:nonzero;stroke:rgb(69,65,60);stroke-width:1px;"/>
                    </g>
                    <g transform="matrix(1.58274,0,0,4.18313,-612.324,-78.4611)">
                        <path d="M15.77,1.64L15.34,1.21" style="fill:none;fill-rule:nonzero;stroke:rgb(69,65,60);stroke-width:1px;"/>
                    </g>
                </g>
            </g>
        </g>
    </g>
</svg>
